<svg width="20" height="20" viewBox="0 0 20 20" fill="none" xmlns="http://www.w3.org/2000/svg">
<g clip-path="url(#clip0_64_375)">
<path d="M13.3333 12.5C13.3333 12.721 13.2455 12.933 13.0893 13.0893C12.933 13.2455 12.721 13.3333 12.5 13.3333H10.8333V15C10.8333 15.221 10.7455 15.433 10.5893 15.5893C10.433 15.7455 10.221 15.8333 10 15.8333C9.77899 15.8333 9.56703 15.7455 9.41074 15.5893C9.25446 15.433 9.16667 15.221 9.16667 15V13.3333H7.5C7.27899 13.3333 7.06702 13.2455 6.91074 13.0893C6.75446 12.933 6.66667 12.721 6.66667 12.5C6.66667 12.279 6.75446 12.067 6.91074 11.9108C7.06702 11.7545 7.27899 11.6667 7.5 11.6667H9.16667V10C9.16667 9.779 9.25446 9.56704 9.41074 9.41076C9.56703 9.25447 9.77899 9.16668 10 9.16668C10.221 9.16668 10.433 9.25447 10.5893 9.41076C10.7455 9.56704 10.8333 9.779 10.8333 10V11.6667H12.5C12.721 11.6667 12.933 11.7545 13.0893 11.9108C13.2455 12.067 13.3333 12.279 13.3333 12.5Z" fill="#424242"/>
<path fill-rule="evenodd" clip-rule="evenodd" d="M20 6.66668V15C19.9987 16.1047 19.5593 17.1637 18.7782 17.9448C17.997 18.7259 16.938 19.1654 15.8333 19.1667H4.16667C3.062 19.1654 2.00296 18.7259 1.22185 17.9448C0.440735 17.1637 0.00132321 16.1047 0 15L0 5.00001C0.00132321 3.89535 0.440735 2.83631 1.22185 2.05519C2.00296 1.27408 3.062 0.834667 4.16667 0.833344H6.27333C6.66117 0.833665 7.04366 0.923798 7.39083 1.09668L10.0208 2.41668C10.137 2.47245 10.2644 2.50095 10.3933 2.50001H15.8333C16.938 2.50133 17.997 2.94075 18.7782 3.72186C19.5593 4.50298 19.9987 5.56201 20 6.66668ZM1.66667 5.83334V5.00001C1.66667 4.33697 1.93006 3.70108 2.3989 3.23224C2.86774 2.7634 3.50363 2.50001 4.16667 2.50001H6.27333C6.40255 2.50037 6.52997 2.5303 6.64583 2.58751L9.27583 3.90334C9.62301 4.07622 10.0055 4.16636 10.3933 4.16668H15.8333C16.3486 4.16881 16.8505 4.33008 17.2706 4.62842C17.6906 4.92675 18.0083 5.34759 18.18 5.83334H1.66667ZM18.3333 7.50001V15C18.3333 15.6631 18.0699 16.2989 17.6011 16.7678C17.1323 17.2366 16.4964 17.5 15.8333 17.5H4.16667C3.50363 17.5 2.86774 17.2366 2.3989 16.7678C1.93006 16.2989 1.66667 15.6631 1.66667 15V7.50001H18.3333Z" fill="#424242"/>
</g>
<defs>
<clipPath id="clip0_64_375">
<rect width="20" height="20" fill="white"/>
</clipPath>
</defs>
</svg>
