<svg width="20" height="18" viewBox="0 0 20 18" fill="none" xmlns="http://www.w3.org/2000/svg">
<g clip-path="url(#clip0_64_380)">
<path d="M19.1667 8.24977H0.833333C0.373096 8.24977 0 8.58556 0 8.99978C0 9.41399 0.373096 9.74978 0.833333 9.74978H19.1667C19.6269 9.74978 20 9.41399 20 8.99978C20 8.58556 19.6269 8.24977 19.1667 8.24977Z" fill="#D9D9D9"/>
<path d="M19.1667 3.00023H0.833333C0.373096 3.00023 0 3.33601 0 3.75023C0 4.16444 0.373096 4.50023 0.833333 4.50023H19.1667C19.6269 4.50023 20 4.16444 20 3.75023C20 3.33601 19.6269 3.00023 19.1667 3.00023Z" fill="#D9D9D9"/>
<path d="M19.1667 13.5H0.833333C0.373096 13.5 0 13.8358 0 14.25C0 14.6642 0.373096 15 0.833333 15H19.1667C19.6269 15 20 14.6642 20 14.25C20 13.8358 19.6269 13.5 19.1667 13.5Z" fill="#D9D9D9"/>
</g>
<defs>
<clipPath id="clip0_64_380">
<rect width="20" height="18" fill="white"/>
</clipPath>
</defs>
</svg>
