<svg width="42" height="42" viewBox="0 0 42 42" fill="none" xmlns="http://www.w3.org/2000/svg">
<circle cx="21" cy="21" r="20.5" fill="#B22222"/>
<path d="M17.875 17.9583C17.875 17.6821 17.9847 17.4171 18.1801 17.2218C18.3754 17.0264 18.6404 16.9167 18.9167 16.9167H23.0833C23.3596 16.9167 23.6246 17.0264 23.8199 17.2218C24.0153 17.4171 24.125 17.6821 24.125 17.9583C24.125 18.2346 24.0153 18.4996 23.8199 18.6949C23.6246 18.8903 23.3596 19 23.0833 19H18.9167C18.6404 19 18.3754 18.8903 18.1801 18.6949C17.9847 18.4996 17.875 18.2346 17.875 17.9583ZM33.5 25.25V26.2917C33.4983 27.6725 32.9491 28.9963 31.9727 29.9727C30.9963 30.9491 29.6725 31.4983 28.2917 31.5H13.7083C12.3275 31.4983 11.0037 30.9491 10.0273 29.9727C9.05092 28.9963 8.50165 27.6725 8.5 26.2917V25.25C8.50152 24.0498 8.91676 22.8868 9.67575 21.957C10.4347 21.0273 11.4911 20.3876 12.6667 20.1458V19C12.6685 17.5359 13.056 16.0981 13.7902 14.8313C14.5244 13.5646 15.5794 12.5137 16.849 11.7844C16.8469 11.7583 16.8333 11.7354 16.8333 11.7083V10.6667C16.8333 9.5616 17.2723 8.50179 18.0537 7.72039C18.8351 6.93899 19.8949 6.5 21 6.5C22.1051 6.5 23.1649 6.93899 23.9463 7.72039C24.7277 8.50179 25.1667 9.5616 25.1667 10.6667V11.7083C25.1667 11.7354 25.1531 11.7583 25.151 11.7844C26.4206 12.5137 27.4756 13.5646 28.2098 14.8313C28.944 16.0981 29.3315 17.5359 29.3333 19V20.1458C30.5089 20.3876 31.5653 21.0273 32.3243 21.957C33.0832 22.8868 33.4985 24.0498 33.5 25.25ZM18.9167 10.9406C20.2815 10.5753 21.7185 10.5753 23.0833 10.9406V10.6667C23.0833 10.1141 22.8638 9.58423 22.4731 9.19353C22.0824 8.80283 21.5525 8.58333 21 8.58333C20.4475 8.58333 19.9176 8.80283 19.5269 9.19353C19.1362 9.58423 18.9167 10.1141 18.9167 10.6667V10.9406ZM14.75 23.724C15.5623 22.8883 16.534 22.2241 17.6075 21.7706C18.681 21.317 19.8346 21.0833 21 21.0833C22.1654 21.0833 23.319 21.317 24.3925 21.7706C25.466 22.2241 26.4377 22.8883 27.25 23.724V19C27.25 17.3424 26.5915 15.7527 25.4194 14.5806C24.2473 13.4085 22.6576 12.75 21 12.75C19.3424 12.75 17.7527 13.4085 16.5806 14.5806C15.4085 15.7527 14.75 17.3424 14.75 19V23.724ZM13.7083 29.4167H13.7354C13.046 28.5204 12.6705 27.4224 12.6667 26.2917V22.3167C12.0595 22.5313 11.5334 22.9284 11.1605 23.4534C10.7876 23.9785 10.586 24.606 10.5833 25.25V26.2917C10.5833 27.1205 10.9126 27.9153 11.4986 28.5014C12.0847 29.0874 12.8795 29.4167 13.7083 29.4167ZM24.125 29.4167C24.8038 29.4135 25.4632 29.1894 26.0033 28.7781C26.5435 28.3669 26.935 27.791 27.1188 27.1375C26.5914 25.9554 25.7329 24.9513 24.647 24.2467C23.5612 23.5421 22.2944 23.1671 21 23.1671C19.7056 23.1671 18.4388 23.5421 17.353 24.2467C16.2671 24.9513 15.4086 25.9554 14.8812 27.1375C15.065 27.791 15.4565 28.3669 15.9967 28.7781C16.5368 29.1894 17.1962 29.4135 17.875 29.4167H24.125ZM31.4167 25.25C31.414 24.606 31.2124 23.9785 30.8395 23.4534C30.4666 22.9284 29.9405 22.5313 29.3333 22.3167V26.2917C29.3295 27.4224 28.954 28.5204 28.2646 29.4167H28.2917C29.1205 29.4167 29.9153 29.0874 30.5014 28.5014C31.0874 27.9153 31.4167 27.1205 31.4167 26.2917V25.25Z" fill="#FAFAFA"/>
</svg>
