<svg width="9" height="9" viewBox="0 0 9 9" fill="none" xmlns="http://www.w3.org/2000/svg">
<g clip-path="url(#clip0_134_935)">
<path d="M7.875 1.5H6.7125C6.62546 1.07678 6.39518 0.696505 6.06047 0.423269C5.72576 0.150034 5.30708 0.000545447 4.875 0L4.125 0C3.69292 0.000545447 3.27424 0.150034 2.93953 0.423269C2.60482 0.696505 2.37454 1.07678 2.2875 1.5H1.125C1.02554 1.5 0.930161 1.53951 0.859835 1.60984C0.789509 1.68016 0.75 1.77554 0.75 1.875C0.75 1.97446 0.789509 2.06984 0.859835 2.14016C0.930161 2.21049 1.02554 2.25 1.125 2.25H1.5V7.125C1.5006 7.6221 1.69833 8.09867 2.04983 8.45017C2.40133 8.80167 2.8779 8.9994 3.375 9H5.625C6.1221 8.9994 6.59867 8.80167 6.95017 8.45017C7.30167 8.09867 7.4994 7.6221 7.5 7.125V2.25H7.875C7.97446 2.25 8.06984 2.21049 8.14017 2.14016C8.21049 2.06984 8.25 1.97446 8.25 1.875C8.25 1.77554 8.21049 1.68016 8.14017 1.60984C8.06984 1.53951 7.97446 1.5 7.875 1.5ZM4.125 0.75H4.875C5.1076 0.750284 5.33442 0.822516 5.52435 0.956791C5.71429 1.09107 5.85803 1.28081 5.93587 1.5H3.06412C3.14197 1.28081 3.28571 1.09107 3.47565 0.956791C3.66558 0.822516 3.8924 0.750284 4.125 0.75ZM6.75 7.125C6.75 7.42337 6.63147 7.70952 6.4205 7.9205C6.20952 8.13147 5.92337 8.25 5.625 8.25H3.375C3.07663 8.25 2.79048 8.13147 2.5795 7.9205C2.36853 7.70952 2.25 7.42337 2.25 7.125V2.25H6.75V7.125Z" fill="#616161"/>
<path d="M3.75 6.75C3.84946 6.75 3.94484 6.71049 4.01517 6.64017C4.08549 6.56984 4.125 6.47446 4.125 6.375V4.125C4.125 4.02554 4.08549 3.93016 4.01517 3.85984C3.94484 3.78951 3.84946 3.75 3.75 3.75C3.65054 3.75 3.55516 3.78951 3.48484 3.85984C3.41451 3.93016 3.375 4.02554 3.375 4.125V6.375C3.375 6.47446 3.41451 6.56984 3.48484 6.64017C3.55516 6.71049 3.65054 6.75 3.75 6.75Z" fill="#616161"/>
<path d="M5.25 6.75C5.34946 6.75 5.44484 6.71049 5.51517 6.64017C5.58549 6.56984 5.625 6.47446 5.625 6.375V4.125C5.625 4.02554 5.58549 3.93016 5.51517 3.85984C5.44484 3.78951 5.34946 3.75 5.25 3.75C5.15054 3.75 5.05516 3.78951 4.98484 3.85984C4.91451 3.93016 4.875 4.02554 4.875 4.125V6.375C4.875 6.47446 4.91451 6.56984 4.98484 6.64017C5.05516 6.71049 5.15054 6.75 5.25 6.75Z" fill="#616161"/>
</g>
<defs>
<clipPath id="clip0_134_935">
<rect width="9" height="9" fill="white"/>
</clipPath>
</defs>
</svg>
