<svg width="26" height="26" viewBox="0 0 26 26" fill="none" xmlns="http://www.w3.org/2000/svg">
<path d="M9.875 11.9583C9.875 11.6821 9.98475 11.4171 10.1801 11.2218C10.3754 11.0264 10.6404 10.9167 10.9167 10.9167H15.0833C15.3596 10.9167 15.6246 11.0264 15.8199 11.2218C16.0153 11.4171 16.125 11.6821 16.125 11.9583C16.125 12.2346 16.0153 12.4996 15.8199 12.6949C15.6246 12.8903 15.3596 13 15.0833 13H10.9167C10.6404 13 10.3754 12.8903 10.1801 12.6949C9.98475 12.4996 9.875 12.2346 9.875 11.9583ZM25.5 19.25V20.2917C25.4983 21.6725 24.9491 22.9963 23.9727 23.9727C22.9963 24.9491 21.6725 25.4983 20.2917 25.5H5.70833C4.3275 25.4983 3.00371 24.9491 2.02731 23.9727C1.05092 22.9963 0.501654 21.6725 0.5 20.2917L0.5 19.25C0.501515 18.0498 0.91676 16.8868 1.67575 15.957C2.43474 15.0273 3.49105 14.3876 4.66667 14.1458V13C4.66847 11.5359 5.05598 10.0981 5.7902 8.83134C6.52441 7.56462 7.57941 6.51369 8.84896 5.78438C8.84688 5.75833 8.83333 5.73542 8.83333 5.70833V4.66667C8.83333 3.5616 9.27232 2.50179 10.0537 1.72039C10.8351 0.938987 11.8949 0.5 13 0.5C14.1051 0.5 15.1649 0.938987 15.9463 1.72039C16.7277 2.50179 17.1667 3.5616 17.1667 4.66667V5.70833C17.1667 5.73542 17.1531 5.75833 17.151 5.78438C18.4206 6.51369 19.4756 7.56462 20.2098 8.83134C20.944 10.0981 21.3315 11.5359 21.3333 13V14.1458C22.5089 14.3876 23.5653 15.0273 24.3243 15.957C25.0832 16.8868 25.4985 18.0498 25.5 19.25ZM10.9167 4.94063C12.2815 4.57534 13.7185 4.57534 15.0833 4.94063V4.66667C15.0833 4.11413 14.8638 3.58423 14.4731 3.19353C14.0824 2.80283 13.5525 2.58333 13 2.58333C12.4475 2.58333 11.9176 2.80283 11.5269 3.19353C11.1362 3.58423 10.9167 4.11413 10.9167 4.66667V4.94063ZM6.75 17.724C7.56235 16.8883 8.53401 16.2241 9.60752 15.7706C10.681 15.317 11.8346 15.0833 13 15.0833C14.1654 15.0833 15.319 15.317 16.3925 15.7706C17.466 16.2241 18.4377 16.8883 19.25 17.724V13C19.25 11.3424 18.5915 9.75268 17.4194 8.58058C16.2473 7.40848 14.6576 6.75 13 6.75C11.3424 6.75 9.75268 7.40848 8.58058 8.58058C7.40848 9.75268 6.75 11.3424 6.75 13V17.724ZM5.70833 23.4167H5.73542C5.04603 22.5204 4.6705 21.4224 4.66667 20.2917V16.3167C4.05947 16.5313 3.53343 16.9284 3.16051 17.4534C2.78759 17.9785 2.586 18.606 2.58333 19.25V20.2917C2.58333 21.1205 2.91257 21.9153 3.49862 22.5014C4.08468 23.0874 4.87953 23.4167 5.70833 23.4167ZM16.125 23.4167C16.8038 23.4135 17.4632 23.1894 18.0033 22.7781C18.5435 22.3669 18.935 21.791 19.1188 21.1375C18.5914 19.9554 17.7329 18.9513 16.647 18.2467C15.5612 17.5421 14.2944 17.1671 13 17.1671C11.7056 17.1671 10.4388 17.5421 9.35298 18.2467C8.26712 18.9513 7.40861 19.9554 6.88125 21.1375C7.06499 21.791 7.45653 22.3669 7.99667 22.7781C8.5368 23.1894 9.19615 23.4135 9.875 23.4167H16.125ZM23.4167 19.25C23.414 18.606 23.2124 17.9785 22.8395 17.4534C22.4666 16.9284 21.9405 16.5313 21.3333 16.3167V20.2917C21.3295 21.4224 20.954 22.5204 20.2646 23.4167H20.2917C21.1205 23.4167 21.9153 23.0874 22.5014 22.5014C23.0874 21.9153 23.4167 21.1205 23.4167 20.2917V19.25Z" fill="#616161"/>
</svg>
