<svg width="100" height="100" viewBox="0 0 100 100" fill="none" xmlns="http://www.w3.org/2000/svg">
<path d="M95.8333 79.1667C95.8333 81.3768 94.9554 83.4964 93.3926 85.0592C91.8298 86.622 89.7101 87.5 87.5 87.5H12.5C10.2899 87.5 8.17025 86.622 6.60744 85.0592C5.04464 83.4964 4.16667 81.3768 4.16667 79.1667V33.3333C4.16667 31.1232 5.04464 29.0036 6.60744 27.4408C8.17025 25.878 10.2899 25 12.5 25H29.1667L37.5 12.5H62.5L70.8333 25H87.5C89.7101 25 91.8298 25.878 93.3926 27.4408C94.9554 29.0036 95.8333 31.1232 95.8333 33.3333V79.1667Z" stroke="#E0E0E0" stroke-width="4" stroke-linecap="round" stroke-linejoin="round"/>
<path d="M50 70.8333C59.2047 70.8333 66.6667 63.3714 66.6667 54.1667C66.6667 44.9619 59.2047 37.5 50 37.5C40.7953 37.5 33.3333 44.9619 33.3333 54.1667C33.3333 63.3714 40.7953 70.8333 50 70.8333Z" stroke="#E0E0E0" stroke-width="4" stroke-linecap="round" stroke-linejoin="round"/>
</svg>
