<svg width="200" height="200" viewBox="0 0 200 200" fill="none" xmlns="http://www.w3.org/2000/svg">
<path d="M58.5152 92.4673L103.113 132.026C103.552 132.416 104.231 132.345 104.58 131.873L183.406 25.3275" stroke="#30B222" stroke-width="7" stroke-linecap="round"/>
<path d="M175 100C175 115.671 170.091 130.948 160.964 143.686C151.836 156.424 138.947 165.983 124.108 171.02C109.269 176.057 93.2246 176.32 78.2287 171.771C63.2327 167.222 50.0383 158.09 40.4985 145.657C30.9587 133.225 25.5529 118.116 25.0402 102.454C24.5274 86.7916 28.9336 71.362 37.6398 58.3322C46.346 45.3025 58.9149 35.3271 73.5812 29.8071C88.2476 24.287 104.275 23.4997 119.411 27.5556" stroke="#30B222" stroke-width="7" stroke-linecap="round"/>
</svg>
