<svg width="20" height="20" viewBox="0 0 20 20" fill="none" xmlns="http://www.w3.org/2000/svg">
<path fill-rule="evenodd" clip-rule="evenodd" d="M15.8537 6.7318C16.278 7.08537 16.3353 7.71593 15.9817 8.14021L11.0003 14.1179C10.988 14.1327 10.9757 14.1475 10.9634 14.1623C10.6678 14.5171 10.3834 14.8585 10.1124 15.105C9.80879 15.3812 9.40291 15.6518 8.8535 15.6767C8.30409 15.7016 7.87537 15.4689 7.54801 15.2213C7.25576 15.0003 6.94167 14.6861 6.61517 14.3595C6.60158 14.3459 6.58798 14.3323 6.57435 14.3187L4.29289 12.0372C3.90237 11.6467 3.90237 11.0135 4.29289 10.623C4.68342 10.2325 5.31658 10.2325 5.70711 10.623L7.98857 12.9044C8.37153 13.2874 8.5865 13.4992 8.75429 13.626C8.75647 13.6277 8.7586 13.6293 8.7607 13.6309C8.76265 13.6291 8.76463 13.6273 8.76665 13.6255C8.92226 13.4839 9.11718 13.2536 9.4639 12.8375L14.4453 6.85984C14.7989 6.43556 15.4294 6.37824 15.8537 6.7318Z" fill="#FAFAFA"/>
<path d="M15.9817 8.14021L15.5976 7.82012L15.9817 8.14021ZM15.8537 6.7318L15.5336 7.11591L15.8537 6.7318ZM11.0003 14.1179L11.3844 14.438L11.0003 14.1179ZM10.9634 14.1623L10.5792 13.8422L10.5792 13.8422L10.9634 14.1623ZM10.1124 15.105L10.4488 15.4749L10.1124 15.105ZM8.8535 15.6767L8.83084 15.1772H8.83084L8.8535 15.6767ZM7.54801 15.2213L7.24644 15.6201L7.24644 15.6201L7.54801 15.2213ZM6.61517 14.3595L6.26154 14.713L6.26154 14.713L6.61517 14.3595ZM6.57435 14.3187L6.2208 14.6722L6.22081 14.6722L6.57435 14.3187ZM4.29289 12.0372L3.93934 12.3908L3.93934 12.3908L4.29289 12.0372ZM5.70711 10.623L5.35355 10.9765L5.35355 10.9765L5.70711 10.623ZM7.98857 12.9044L7.63501 13.258L7.63501 13.258L7.98857 12.9044ZM8.75429 13.626L9.05588 13.2272L9.05586 13.2272L8.75429 13.626ZM8.7607 13.6309L8.46134 14.0313L8.79002 14.277L9.0951 14.0026L8.7607 13.6309ZM8.76665 13.6255L9.10306 13.9954L9.10309 13.9954L8.76665 13.6255ZM9.4639 12.8375L9.07978 12.5174L9.4639 12.8375ZM14.4453 6.85984L14.8294 7.17993L14.4453 6.85984ZM16.3659 8.4603C16.8962 7.82389 16.8102 6.87804 16.1738 6.34769L15.5336 7.11591C15.7458 7.2927 15.7744 7.60798 15.5976 7.82012L16.3659 8.4603ZM11.3844 14.438L16.3659 8.4603L15.5976 7.82012L10.6162 13.7978L11.3844 14.438ZM11.3475 14.4823C11.3599 14.4675 11.3721 14.4528 11.3844 14.438L10.6162 13.7978C10.6039 13.8127 10.5915 13.8275 10.5792 13.8422L11.3475 14.4823ZM10.4488 15.4749C10.7509 15.2001 11.059 14.8286 11.3476 14.4823L10.5792 13.8422C10.2766 14.2056 10.016 14.5168 9.77597 14.7351L10.4488 15.4749ZM8.87616 16.1762C9.59057 16.1438 10.1034 15.7891 10.4488 15.4749L9.77597 14.7351C9.51418 14.9732 9.21526 15.1598 8.83084 15.1772L8.87616 16.1762ZM7.24644 15.6201C7.6189 15.9018 8.16175 16.2086 8.87616 16.1762L8.83084 15.1772C8.44643 15.1947 8.13184 15.0359 7.84958 14.8225L7.24644 15.6201ZM6.26154 14.713C6.58025 15.0318 6.92075 15.3739 7.24644 15.6201L7.84958 14.8225C7.59078 14.6268 7.30308 14.3404 6.96879 14.006L6.26154 14.713ZM6.22081 14.6722C6.23439 14.6858 6.24796 14.6994 6.26154 14.713L6.96879 14.006C6.9552 13.9924 6.94157 13.9788 6.9279 13.9651L6.22081 14.6722ZM3.93934 12.3908L6.2208 14.6722L6.92791 13.9651L4.64645 11.6836L3.93934 12.3908ZM3.93934 10.2694C3.35355 10.8552 3.35355 11.805 3.93934 12.3908L4.64645 11.6836C4.45118 11.4884 4.45118 11.1718 4.64645 10.9765L3.93934 10.2694ZM6.06066 10.2694C5.47487 9.68365 4.52513 9.68365 3.93934 10.2694L4.64645 10.9765C4.84171 10.7813 5.15829 10.7813 5.35355 10.9765L6.06066 10.2694ZM8.34212 12.5509L6.06066 10.2694L5.35355 10.9765L7.63501 13.258L8.34212 12.5509ZM9.05586 13.2272C8.92244 13.1263 8.73641 12.9452 8.34212 12.5509L7.63501 13.258C8.00664 13.6296 8.25055 13.872 8.45272 14.0249L9.05586 13.2272ZM9.06006 13.2304C9.05872 13.2294 9.05733 13.2283 9.05588 13.2272L8.4527 14.0248C8.45561 14.027 8.45849 14.0292 8.46134 14.0313L9.06006 13.2304ZM8.43023 13.2556C8.42884 13.2568 8.42753 13.258 8.4263 13.2591L9.0951 14.0026C9.09776 14.0002 9.10042 13.9978 9.10306 13.9954L8.43023 13.2556ZM9.07978 12.5174C8.72281 12.9458 8.55394 13.1431 8.43021 13.2556L9.10309 13.9954C9.29058 13.8248 9.51155 13.5614 9.84801 13.1576L9.07978 12.5174ZM14.0612 6.53975L9.07978 12.5174L9.84801 13.1576L14.8294 7.17993L14.0612 6.53975ZM16.1738 6.34769C15.5374 5.81735 14.5915 5.90333 14.0612 6.53975L14.8294 7.17993C15.0062 6.96779 15.3215 6.93913 15.5336 7.11591L16.1738 6.34769Z" fill="#FAFAFA"/>
</svg>
