<svg width="59" height="59" viewBox="0 0 59 59" fill="none" xmlns="http://www.w3.org/2000/svg">
<path d="M44.2522 43.7346C52.1137 35.5873 51.882 22.6094 43.7346 14.7479C35.5872 6.88633 22.6094 7.11804 14.7479 15.2654C6.8863 23.4128 7.11801 36.3906 15.2654 44.2522C23.4128 52.1137 36.3906 51.882 44.2522 43.7346Z" fill="#3478F5" fill-opacity="0.2"/>
<path d="M38.2093 37.9111C42.7404 33.2153 42.6069 25.7354 37.911 21.2043C33.2152 16.6732 25.7353 16.8068 21.2042 21.5026C16.6732 26.1984 16.8067 33.6783 21.5025 38.2094C26.1984 42.7405 33.6782 42.6069 38.2093 37.9111Z" fill="white"/>
<path d="M36.7921 36.5436C40.568 32.6304 40.4567 26.3972 36.5435 22.6213C32.6303 18.8454 26.3971 18.9567 22.6212 22.8699C18.8453 26.7831 18.9566 33.0163 22.8697 36.7922C26.7829 40.5681 33.0162 40.4568 36.7921 36.5436Z" fill="#3478F5"/>
</svg>
