<svg width="14" height="14" viewBox="0 0 14 14" fill="none" xmlns="http://www.w3.org/2000/svg">
<path d="M7.64174 11.0833C7.52637 11.0829 7.41374 11.0482 7.31808 10.9837C7.22243 10.9192 7.14804 10.8278 7.10433 10.721C7.06063 10.6142 7.04956 10.4969 7.07254 10.3838C7.09551 10.2708 7.15149 10.1671 7.23341 10.0858L9.91675 7.41417C9.97142 7.35994 10.0148 7.29543 10.0444 7.22434C10.074 7.15326 10.0893 7.07701 10.0893 7C10.0893 6.923 10.074 6.84675 10.0444 6.77567C10.0148 6.70458 9.97142 6.64007 9.91675 6.58584L7.23341 3.91417C7.17873 3.85994 7.13534 3.79543 7.10572 3.72434C7.0761 3.65326 7.06086 3.57701 7.06086 3.5C7.06086 3.423 7.0761 3.34675 7.10572 3.27567C7.13534 3.20458 7.17873 3.14007 7.23341 3.08584C7.3427 2.97719 7.49055 2.91621 7.64466 2.91621C7.79877 2.91621 7.94661 2.97719 8.05591 3.08584L10.7334 5.76334C11.0611 6.09146 11.2452 6.53625 11.2452 7C11.2452 7.46376 11.0611 7.90855 10.7334 8.23667L8.05591 10.9142C8.0014 10.9682 7.93676 11.011 7.86569 11.04C7.79462 11.0691 7.71851 11.0838 7.64174 11.0833Z" fill="#FAFAFA"/>
<path d="M3.55837 11.0833C3.443 11.0829 3.33036 11.0482 3.23471 10.9837C3.13905 10.9192 3.06467 10.8278 3.02096 10.721C2.97725 10.6142 2.96619 10.4969 2.98916 10.3838C3.01214 10.2708 3.06812 10.1671 3.15003 10.0858L6.23587 7L3.15003 3.91417C3.09536 3.85994 3.05196 3.79543 3.02235 3.72434C2.99273 3.65326 2.97748 3.57701 2.97748 3.5C2.97748 3.423 2.99273 3.34675 3.02235 3.27567C3.05196 3.20458 3.09536 3.14007 3.15003 3.08584C3.25933 2.97719 3.40717 2.91621 3.56128 2.91621C3.71539 2.91621 3.86324 2.97719 3.97253 3.08584L7.47253 6.58584C7.52721 6.64007 7.5706 6.70458 7.60022 6.77567C7.62983 6.84675 7.64508 6.923 7.64508 7C7.64508 7.07701 7.62983 7.15326 7.60022 7.22434C7.5706 7.29543 7.52721 7.35994 7.47253 7.41417L3.97253 10.9142C3.91803 10.9682 3.85338 11.011 3.78231 11.04C3.71124 11.0691 3.63514 11.0838 3.55837 11.0833Z" fill="#FAFAFA"/>
</svg>
