<svg width="20" height="20" viewBox="0 0 20 20" fill="none" xmlns="http://www.w3.org/2000/svg">
<path d="M5.3418 7.5H14.6585C14.8233 7.50069 14.9842 7.55024 15.1208 7.64237C15.2575 7.73451 15.3638 7.8651 15.4262 8.01762C15.4886 8.17015 15.5044 8.33776 15.4716 8.49928C15.4388 8.66079 15.3588 8.80894 15.2418 8.925L10.5918 13.575C10.5143 13.6531 10.4222 13.7151 10.3206 13.7574C10.2191 13.7997 10.1101 13.8215 10.0001 13.8215C9.89013 13.8215 9.78121 13.7997 9.67966 13.7574C9.57811 13.7151 9.48594 13.6531 9.40847 13.575L4.75847 8.925C4.64145 8.80894 4.56148 8.66079 4.52865 8.49928C4.49583 8.33776 4.51164 8.17015 4.57408 8.01762C4.63652 7.8651 4.74278 7.73451 4.87943 7.64237C5.01609 7.55024 5.17699 7.50069 5.3418 7.5Z" fill="#757575"/>
</svg>
