<svg width="20" height="20" viewBox="0 0 20 20" fill="none" xmlns="http://www.w3.org/2000/svg">
<g clip-path="url(#clip0_168_1897)">
<path fill-rule="evenodd" clip-rule="evenodd" d="M18.3333 15V7.5H1.66667V15C1.66667 15.663 1.93006 16.2989 2.3989 16.7678C2.86774 17.2366 3.50363 17.5 4.16667 17.5H15.8333C16.4964 17.5 17.1323 17.2366 17.6011 16.7678C18.0699 16.2989 18.3333 15.663 18.3333 15ZM13.0893 13.0893C13.2455 12.933 13.3333 12.721 13.3333 12.5C13.3333 12.279 13.2455 12.067 13.0893 11.9107C12.933 11.7545 12.721 11.6667 12.5 11.6667H10.8333V10C10.8333 9.77898 10.7455 9.56702 10.5893 9.41074C10.433 9.25446 10.221 9.16666 10 9.16666C9.77899 9.16666 9.56703 9.25446 9.41074 9.41074C9.25446 9.56702 9.16667 9.77898 9.16667 10V11.6667H7.5C7.27899 11.6667 7.06702 11.7545 6.91074 11.9107C6.75446 12.067 6.66667 12.279 6.66667 12.5C6.66667 12.721 6.75446 12.933 6.91074 13.0893C7.06702 13.2455 7.27899 13.3333 7.5 13.3333H9.16667V15C9.16667 15.221 9.25446 15.433 9.41074 15.5893C9.56703 15.7455 9.77899 15.8333 10 15.8333C10.221 15.8333 10.433 15.7455 10.5893 15.5893C10.7455 15.433 10.8333 15.221 10.8333 15V13.3333H12.5C12.721 13.3333 12.933 13.2455 13.0893 13.0893Z" fill="#BDBDBD"/>
<path d="M1.66667 5V5.83333H18.18C18.0083 5.34757 17.6906 4.92674 17.2706 4.6284C16.8505 4.33007 16.3486 4.1688 15.8333 4.16666H10.3933C10.0055 4.16634 9.62301 4.07621 9.27583 3.90333L6.64583 2.58749C6.52997 2.53029 6.40255 2.50035 6.27333 2.49999H4.16667C3.50363 2.49999 2.86774 2.76339 2.3989 3.23223C1.93006 3.70107 1.66667 4.33695 1.66667 5Z" fill="#BDBDBD"/>
<path d="M13.3333 12.5C13.3333 12.721 13.2455 12.933 13.0893 13.0893C12.933 13.2455 12.721 13.3333 12.5 13.3333H10.8333V15C10.8333 15.221 10.7455 15.433 10.5893 15.5893C10.433 15.7455 10.221 15.8333 10 15.8333C9.77899 15.8333 9.56703 15.7455 9.41074 15.5893C9.25446 15.433 9.16667 15.221 9.16667 15V13.3333H7.5C7.27899 13.3333 7.06702 13.2455 6.91074 13.0893C6.75446 12.933 6.66667 12.721 6.66667 12.5C6.66667 12.279 6.75446 12.067 6.91074 11.9107C7.06702 11.7545 7.27899 11.6667 7.5 11.6667H9.16667V10C9.16667 9.77898 9.25446 9.56702 9.41074 9.41074C9.56703 9.25446 9.77899 9.16666 10 9.16666C10.221 9.16666 10.433 9.25446 10.5893 9.41074C10.7455 9.56702 10.8333 9.77898 10.8333 10V11.6667H12.5C12.721 11.6667 12.933 11.7545 13.0893 11.9107C13.2455 12.067 13.3333 12.279 13.3333 12.5Z" fill="#BDBDBD"/>
</g>
<defs>
<clipPath id="clip0_168_1897">
<rect width="20" height="20" fill="white"/>
</clipPath>
</defs>
</svg>
