<svg width="32" height="32" viewBox="0 0 32 32" fill="none" xmlns="http://www.w3.org/2000/svg">
<rect width="32" height="32" rx="10" fill="#B22222"/>
<g clip-path="url(#clip0_290_1924)">
<path d="M25.9487 6.05229C25.3255 5.43005 24.4809 5.08057 23.6002 5.08057C22.7196 5.08057 21.8749 5.43005 21.2517 6.05229L6.34305 20.961C5.91612 21.3855 5.5776 21.8905 5.34709 22.4467C5.11658 23.0029 4.99866 23.5993 5.00014 24.2014V26.0833C5.00014 26.3264 5.09671 26.5596 5.26862 26.7315C5.44053 26.9034 5.67369 27 5.9168 27H7.79872C8.40075 27.0017 8.99714 26.8839 9.55336 26.6536C10.1096 26.4232 10.6146 26.0848 11.0391 25.658L25.9487 10.7484C26.5707 10.1252 26.92 9.28076 26.92 8.40033C26.92 7.51991 26.5707 6.67545 25.9487 6.05229V6.05229ZM9.74297 24.3618C9.22597 24.8753 8.52744 25.1645 7.79872 25.1666H6.83347V24.2014C6.83254 23.8401 6.90328 23.4823 7.04159 23.1485C7.17989 22.8148 7.38302 22.5118 7.63922 22.2571L18.9536 10.9427L21.062 13.051L9.74297 24.3618ZM24.6516 9.45221L22.3545 11.7503L20.2461 9.64654L22.5442 7.34846C22.6827 7.21032 22.8469 7.10081 23.0277 7.02617C23.2085 6.95152 23.4022 6.91321 23.5977 6.91343C23.7933 6.91364 23.9869 6.95237 24.1675 7.02741C24.3481 7.10244 24.5121 7.21231 24.6503 7.35075C24.7884 7.48918 24.8979 7.65347 24.9726 7.83423C25.0472 8.01499 25.0855 8.20868 25.0853 8.40424C25.0851 8.59981 25.0463 8.79342 24.9713 8.97401C24.8963 9.15461 24.7864 9.31866 24.648 9.45679L24.6516 9.45221Z" fill="#FAFAFA"/>
</g>
<defs>
<clipPath id="clip0_290_1924">
<rect x="5" y="5" width="22" height="22" rx="2" fill="white"/>
</clipPath>
</defs>
</svg>
