<svg width="28" height="28" viewBox="0 0 28 28" fill="none" xmlns="http://www.w3.org/2000/svg">
<path d="M12.3665 14.8283C12.2572 14.7199 12.1704 14.5908 12.1112 14.4487C12.0519 14.3065 12.0214 14.154 12.0214 14C12.0214 13.846 12.0519 13.6935 12.1112 13.5513C12.1704 13.4091 12.2572 13.2801 12.3665 13.1717L17.7215 7.82832C17.8309 7.71987 17.9177 7.59083 17.9769 7.44866C18.0362 7.30649 18.0666 7.154 18.0666 6.99999C18.0666 6.84598 18.0362 6.69349 17.9769 6.55132C17.9177 6.40915 17.8309 6.28011 17.7215 6.17166C17.503 5.95436 17.2073 5.8324 16.899 5.8324C16.5908 5.8324 16.2951 5.95436 16.0765 6.17166L10.7215 11.5267C10.0661 12.1829 9.69796 13.0725 9.69796 14C9.69796 14.9275 10.0661 15.8171 10.7215 16.4733L16.0765 21.8283C16.2939 22.0439 16.5872 22.1654 16.8932 22.1667C17.0468 22.1675 17.199 22.1381 17.3411 22.0801C17.4832 22.022 17.6125 21.9365 17.7215 21.8283C17.8309 21.7199 17.9177 21.5908 17.9769 21.4487C18.0362 21.3065 18.0666 21.154 18.0666 21C18.0666 20.846 18.0362 20.6935 17.9769 20.5513C17.9177 20.4091 17.8309 20.2801 17.7215 20.1717L12.3665 14.8283Z" fill="#424242"/>
</svg>
