<svg width="42" height="42" viewBox="0 0 42 42" fill="none" xmlns="http://www.w3.org/2000/svg">
<circle cx="21" cy="21" r="20.5" fill="#B22222"/>
<path d="M29.8752 26.8817V21.5421C29.8752 16.3723 25.67 12.1671 20.5002 12.1671C15.3304 12.1671 11.1252 16.3723 11.1252 21.5421V26.8817C9.32938 27.3452 8.00021 28.9786 8.00021 30.9171C8.00021 32.0661 8.93458 33.0005 10.0835 33.0005H30.9169C32.0658 33.0005 33.0002 32.0661 33.0002 30.9171C33.0002 28.9786 31.671 27.3452 29.8752 26.8817ZM20.5002 14.2505C24.52 14.2505 27.7919 17.5223 27.7919 21.5421V26.7505H13.2085V21.5421C13.2085 17.5223 16.4804 14.2505 20.5002 14.2505ZM10.0835 30.9171C10.0835 29.7682 11.0179 28.8338 12.1669 28.8338H28.8335C29.9825 28.8338 30.9169 29.7682 30.9169 30.9171H10.0835ZM29.6638 14.4702C29.2544 14.065 29.2513 13.4067 29.6554 12.9973L31.2179 11.4171C31.6221 11.0077 32.2815 11.0046 32.6908 11.4088C33.1002 11.814 33.1033 12.4723 32.6992 12.8817L31.1367 14.4619C30.9335 14.6682 30.6648 14.7713 30.396 14.7713C30.1315 14.7713 29.8669 14.6702 29.6638 14.4702ZM25.3044 10.1255L26.1138 8.56296C26.3783 8.05046 27.0085 7.85254 27.5179 8.11712C28.0283 8.38171 28.2283 9.00983 27.9638 9.52129L27.1544 11.0838C26.969 11.4421 26.6054 11.6463 26.2283 11.6463C26.0669 11.6463 25.9033 11.6088 25.7502 11.5296C25.2398 11.265 25.0398 10.6369 25.3044 10.1255ZM8.30125 12.8827C7.89604 12.4734 7.90021 11.815 8.30958 11.4098C8.71792 11.0046 9.37938 11.0088 9.7825 11.4182L11.345 12.9984C11.7502 13.4077 11.746 14.0661 11.3367 14.4713C11.1346 14.6713 10.869 14.7723 10.6044 14.7723C10.3356 14.7723 10.0669 14.6692 9.86375 14.463L8.30125 12.8827ZM13.0367 9.52129C12.7721 9.01087 12.9721 8.38171 13.4825 8.11712C13.9898 7.85254 14.621 8.05046 14.8867 8.56296L15.696 10.1255C15.9606 10.6359 15.7606 11.265 15.2502 11.5296C15.0981 11.6088 14.9335 11.6463 14.7721 11.6463C14.396 11.6463 14.0315 11.4421 13.846 11.0838L13.0367 9.52129ZM16.3335 21.5421C16.3335 19.2442 18.2023 17.3755 20.5002 17.3755C21.0763 17.3755 21.5419 17.8411 21.5419 18.4171C21.5419 18.9932 21.0763 19.4588 20.5002 19.4588C19.3513 19.4588 18.4169 20.3932 18.4169 21.5421C18.4169 22.1182 17.9513 22.5838 17.3752 22.5838C16.7992 22.5838 16.3335 22.1182 16.3335 21.5421Z" fill="#FAFAFA"/>
</svg>
