<svg width="26" height="26" viewBox="0 0 26 26" fill="none" xmlns="http://www.w3.org/2000/svg">
<path d="M22.3751 19.3815V14.0419C22.3751 8.87215 18.1699 4.66694 13.0001 4.66694C7.83035 4.66694 3.62514 8.87215 3.62514 14.0419V19.3815C1.82931 19.8451 0.500141 21.4784 0.500141 23.4169C0.500141 24.5659 1.43452 25.5003 2.58347 25.5003H23.4168C24.5658 25.5003 25.5001 24.5659 25.5001 23.4169C25.5001 21.4784 24.171 19.8451 22.3751 19.3815ZM13.0001 6.75027C17.0199 6.75027 20.2918 10.0221 20.2918 14.0419V19.2503H5.70848V14.0419C5.70848 10.0221 8.98035 6.75027 13.0001 6.75027ZM2.58347 23.4169C2.58347 22.268 3.51785 21.3336 4.66681 21.3336H21.3335C22.4824 21.3336 23.4168 22.268 23.4168 23.4169H2.58347ZM22.1637 6.97006C21.7543 6.56486 21.7512 5.90652 22.1553 5.49715L23.7178 3.91694C24.122 3.50756 24.7814 3.50444 25.1908 3.90861C25.6001 4.31381 25.6033 4.97215 25.1991 5.38152L23.6366 6.96173C23.4335 7.16798 23.1647 7.27111 22.896 7.27111C22.6314 7.27111 22.3668 7.17006 22.1637 6.97006ZM17.8043 2.62527L18.6137 1.06277C18.8783 0.550272 19.5085 0.352356 20.0179 0.616939C20.5283 0.881522 20.7283 1.50965 20.4637 2.02111L19.6543 3.58361C19.4689 3.94194 19.1054 4.14611 18.7283 4.14611C18.5668 4.14611 18.4033 4.10861 18.2501 4.02944C17.7397 3.76486 17.5397 3.13673 17.8043 2.62527ZM0.801183 5.38256C0.395974 4.97319 0.400141 4.31486 0.809516 3.90965C1.21785 3.50444 1.87931 3.50861 2.28243 3.91798L3.84493 5.49819C4.25014 5.90756 4.24597 6.5659 3.8366 6.97111C3.63452 7.1711 3.36889 7.27215 3.10431 7.27215C2.83556 7.27215 2.56681 7.16902 2.36368 6.96277L0.801183 5.38256ZM5.5366 2.02111C5.27202 1.51069 5.47202 0.881522 5.98243 0.616939C6.48973 0.352356 7.12098 0.550272 7.3866 1.06277L8.19598 2.62527C8.46056 3.13569 8.26056 3.76486 7.75014 4.02944C7.59806 4.10861 7.43348 4.14611 7.27202 4.14611C6.89598 4.14611 6.53139 3.94194 6.34597 3.58361L5.5366 2.02111ZM8.83348 14.0419C8.83348 11.744 10.7022 9.87527 13.0001 9.87527C13.5762 9.87527 14.0418 10.3409 14.0418 10.9169C14.0418 11.493 13.5762 11.9586 13.0001 11.9586C11.8512 11.9586 10.9168 12.893 10.9168 14.0419C10.9168 14.618 10.4512 15.0836 9.87514 15.0836C9.2991 15.0836 8.83348 14.618 8.83348 14.0419Z" fill="#616161"/>
</svg>
