<svg width="42" height="42" viewBox="0 0 42 42" fill="none" xmlns="http://www.w3.org/2000/svg">
<circle cx="21" cy="21" r="20.5" fill="#B22222"/>
<path d="M12.2088 31.999C11.6378 31.999 11.0658 31.7928 10.6209 31.3783L8.54752 29.4527C6.4887 27.3959 6.4887 24.0926 8.52043 22.0629C9.50504 21.0798 10.8137 20.5383 12.2046 20.5383C13.5956 20.5383 14.9042 21.0798 15.8878 22.0629C16.8724 23.046 17.4142 24.354 17.4142 25.7453C17.4142 27.1366 16.8724 28.4436 15.8878 29.4267L13.8029 31.3752C13.357 31.7917 12.784 32 12.2109 32L12.2088 31.999ZM12.2036 22.6201C11.369 22.6201 10.5834 22.945 9.99266 23.5354C8.77466 24.7529 8.77466 26.7346 9.99266 27.9531L12.039 29.8526C12.1348 29.9411 12.2828 29.9411 12.3786 29.8526L14.4385 27.9291C15.0032 27.3637 15.3283 26.5795 15.3283 25.7443C15.3283 24.9091 15.0032 24.1249 14.4125 23.5344C13.8227 22.945 13.0382 22.6201 12.2036 22.6201ZM26.7956 18.4607C26.2247 18.4607 25.6527 18.2534 25.2078 17.84L23.1343 15.9144C21.0755 13.8577 21.0755 10.5543 23.1073 8.52462C24.0908 7.54153 25.3995 7 26.7915 7C28.1835 7 29.49 7.54153 30.4746 8.52462C32.5064 10.5554 32.5064 13.8587 30.4746 15.8884L28.3898 17.8369C27.9438 18.2534 27.3697 18.4617 26.7967 18.4617L26.7956 18.4607ZM26.7904 9.08177C25.9548 9.08177 25.1702 9.40669 24.5795 9.99613C23.3615 11.2146 23.3615 13.1964 24.5795 14.4148L26.6248 16.3143C26.7217 16.4039 26.8706 16.4018 26.9655 16.3143L29.0253 14.3909C30.2183 13.1974 30.2183 11.2156 29.0003 9.99717C28.4096 9.40669 27.625 9.08177 26.7904 9.08177ZM32 27.8271C32 25.5297 30.1308 23.6615 27.8323 23.6615H22.6228C21.4735 23.6615 20.5389 22.7273 20.5389 21.5786C20.5389 20.6966 21.0974 19.9082 21.9278 19.6146C22.4706 19.4229 22.7551 18.8283 22.5634 18.2857C22.3717 17.7431 21.7778 17.4578 21.2339 17.6505C19.572 18.2368 18.4551 19.8166 18.4551 21.5786C18.4551 23.876 20.3243 25.7443 22.6228 25.7443H27.8323C28.9816 25.7443 29.9162 26.6784 29.9162 27.8271C29.9162 28.9758 28.9816 29.9099 27.8323 29.9099H18.4551C17.88 29.9099 17.4132 30.3764 17.4132 30.9513C17.4132 31.5262 17.88 31.9927 18.4551 31.9927H27.8323C30.1308 31.9927 32 30.1244 32 27.8271Z" fill="#FAFAFA"/>
</svg>
