<svg width="26" height="26" viewBox="0 0 26 26" fill="none" xmlns="http://www.w3.org/2000/svg">
<path d="M5.70881 25.499C5.13784 25.499 4.56583 25.2928 4.12093 24.8783L2.04752 22.9527C-0.0113031 20.8959 -0.0113032 17.5926 2.02043 15.5629C3.00504 14.5798 4.31369 14.0383 5.70465 14.0383C7.0956 14.0383 8.40425 14.5798 9.38782 15.5629C10.3724 16.546 10.9142 17.854 10.9142 19.2453C10.9142 20.6366 10.3724 21.9436 9.38782 22.9267L7.30294 24.8752C6.857 25.2917 6.28395 25.5 5.7109 25.5L5.70881 25.499ZM5.7036 16.1201C4.86903 16.1201 4.08342 16.445 3.49266 17.0354C2.27466 18.2529 2.27466 20.2346 3.49266 21.4531L5.53898 23.3526C5.63484 23.4411 5.78279 23.4411 5.87865 23.3526L7.93851 21.4291C8.50323 20.8637 8.82831 20.0795 8.82831 19.2443C8.82831 18.4091 8.50323 17.6249 7.91246 17.0344C7.32274 16.445 6.53818 16.1201 5.7036 16.1201ZM20.2956 11.9607C19.7247 11.9607 19.1527 11.7534 18.7078 11.34L16.6343 9.41444C14.5755 7.35766 14.5755 4.05432 16.6073 2.02462C17.5908 1.04153 18.8995 0.5 20.2915 0.5C21.6835 0.5 22.99 1.04153 23.9746 2.02462C26.0064 4.05536 26.0064 7.3587 23.9746 9.3884L21.8898 11.3369C21.4438 11.7534 20.8697 11.9617 20.2967 11.9617L20.2956 11.9607ZM20.2904 2.58177C19.4548 2.58177 18.6702 2.90669 18.0795 3.49613C16.8615 4.71457 16.8615 6.69637 18.0795 7.91481L20.1248 9.81434C20.2217 9.9039 20.3706 9.90182 20.4655 9.81434L22.5253 7.89086C23.7183 6.69741 23.7183 4.71561 22.5003 3.49717C21.9096 2.90669 21.125 2.58177 20.2904 2.58177ZM25.5 21.3271C25.5 19.0297 23.6308 17.1615 21.3323 17.1615H16.1228C14.9735 17.1615 14.0389 16.2273 14.0389 15.0786C14.0389 14.1966 14.5974 13.4082 15.4278 13.1146C15.9706 12.9229 16.2551 12.3283 16.0634 11.7857C15.8717 11.2431 15.2778 10.9578 14.7339 11.1505C13.072 11.7368 11.9551 13.3166 11.9551 15.0786C11.9551 17.376 13.8243 19.2443 16.1228 19.2443H21.3323C22.4816 19.2443 23.4162 20.1784 23.4162 21.3271C23.4162 22.4758 22.4816 23.4099 21.3323 23.4099H11.9551C11.38 23.4099 10.9132 23.8764 10.9132 24.4513C10.9132 25.0262 11.38 25.4927 11.9551 25.4927H21.3323C23.6308 25.4927 25.5 23.6244 25.5 21.3271Z" fill="#616161"/>
</svg>
