<svg width="31" height="36" viewBox="0 0 31 36" fill="none" xmlns="http://www.w3.org/2000/svg">
<g filter="url(#filter0_d_554_1958)">
<path fill-rule="evenodd" clip-rule="evenodd" d="M28 14.7143C28 7.14009 21.9558 1 14.5 1C7.04416 1 1 7.14009 1 14.7143C1 16.5893 1.3704 18.3764 2.04091 20.0043C4.822 27.718 14.5709 33 14.5709 33C14.5709 33 26.5464 26.5117 27.7382 17.4154C27.9099 16.5421 28 15.6389 28 14.7143Z" fill="white"/>
</g>
<path fill-rule="evenodd" clip-rule="evenodd" d="M26.7373 17.1162L26.7241 17.1831L26.7152 17.2508C26.1764 21.3429 23.1235 25.092 19.829 27.9703C18.2237 29.3728 16.6495 30.4919 15.475 31.2603C15.1338 31.4836 14.8278 31.6763 14.5663 31.8369C14.3925 31.7302 14.1991 31.6092 13.9887 31.4746C13.0059 30.8456 11.6647 29.924 10.2376 28.7589C7.32921 26.3843 4.30214 23.1894 2.99649 19.5854L2.9803 19.5408L2.96213 19.4969C2.34299 18.001 1.99994 16.3572 1.99994 14.627C1.99994 7.65335 7.59181 2.00012 14.4897 2.00012C21.3877 2.00012 26.9795 7.65335 26.9795 14.627C26.9795 15.481 26.896 16.3131 26.7373 17.1162Z" fill="#B22222"/>
<path fill-rule="evenodd" clip-rule="evenodd" d="M20.772 10.6503C21.1963 11.0038 21.2536 11.6344 20.9001 12.0587L15.9187 18.0364C15.9063 18.0512 15.894 18.0659 15.8817 18.0807C15.5861 18.4356 15.3018 18.7769 15.0307 19.0234C14.7271 19.2996 14.3212 19.5702 13.7718 19.5952C13.2224 19.6201 12.7937 19.3873 12.4663 19.1398C12.1741 18.9188 11.86 18.6046 11.5335 18.2779C11.5199 18.2644 11.5063 18.2507 11.4927 18.2371L9.21123 15.9557C8.8207 15.5651 8.8207 14.932 9.21123 14.5414C9.60175 14.1509 10.2349 14.1509 10.6254 14.5414L12.9069 16.8229C13.2899 17.2059 13.5048 17.4176 13.6726 17.5445C13.6748 17.5461 13.6769 17.5477 13.679 17.5493C13.681 17.5476 13.683 17.5458 13.685 17.5439C13.8406 17.4024 14.0355 17.172 14.3822 16.756L19.3636 10.7783C19.7172 10.354 20.3478 10.2967 20.772 10.6503Z" fill="#FAFAFA"/>
<path d="M20.9001 12.0587L20.1319 11.4185L20.9001 12.0587ZM20.772 10.6503L20.1319 11.4185L20.772 10.6503ZM15.9187 18.0364L16.6869 18.6765L16.6869 18.6765L15.9187 18.0364ZM15.8817 18.0807L15.1134 17.4407L15.1134 17.4407L15.8817 18.0807ZM15.0307 19.0234L15.7036 19.7632L15.7036 19.7632L15.0307 19.0234ZM13.7718 19.5952L13.7265 18.5962L13.7265 18.5962L13.7718 19.5952ZM12.4663 19.1398L11.8632 19.9374L11.8632 19.9374L12.4663 19.1398ZM11.5335 18.2779L10.8263 18.9849L10.8263 18.9849L11.5335 18.2779ZM11.4927 18.2371L10.7856 18.9442L10.7856 18.9442L11.4927 18.2371ZM9.21123 15.9557L8.50412 16.6628L8.50412 16.6628L9.21123 15.9557ZM10.6254 14.5414L9.91833 15.2486L9.91833 15.2486L10.6254 14.5414ZM12.9069 16.8229L12.1998 17.53L12.1998 17.53L12.9069 16.8229ZM13.6726 17.5445L14.2758 16.7469L14.2758 16.7469L13.6726 17.5445ZM13.679 17.5493L13.0803 18.3503L13.7377 18.8417L14.3478 18.2928L13.679 17.5493ZM13.685 17.5439L14.3578 18.2837L14.3579 18.2837L13.685 17.5439ZM14.3822 16.756L13.614 16.1158L13.614 16.1158L14.3822 16.756ZM19.3636 10.7783L20.1319 11.4185L20.1319 11.4185L19.3636 10.7783ZM21.6683 12.6989C22.3754 11.8503 22.2608 10.5892 21.4122 9.88204L20.1319 11.4185L20.1319 11.4185L21.6683 12.6989ZM16.6869 18.6765L21.6683 12.6989L20.1319 11.4185L15.1505 17.3962L16.6869 18.6765ZM16.6501 18.7208C16.6624 18.706 16.6746 18.6913 16.6869 18.6765L15.1505 17.3962C15.138 17.4111 15.1257 17.4259 15.1134 17.4407L16.6501 18.7208ZM15.7036 19.7632C16.0367 19.4602 16.3686 19.0586 16.6501 18.7208L15.1134 17.4407C14.8037 17.8125 14.5669 18.0936 14.3579 18.2837L15.7036 19.7632ZM13.8171 20.5941C14.6966 20.5542 15.3164 20.1155 15.7036 19.7632L14.3579 18.2837C14.1379 18.4838 13.9459 18.5862 13.7265 18.5962L13.8171 20.5941ZM11.8632 19.9374C12.2808 20.2531 12.9377 20.634 13.8172 20.5941L13.7265 18.5962C13.5071 18.6061 13.3067 18.5215 13.0695 18.3421L11.8632 19.9374ZM10.8263 18.9849C11.1372 19.2959 11.5041 19.6658 11.8632 19.9374L13.0695 18.3421C12.8441 18.1717 12.5828 17.9132 12.2407 17.571L10.8263 18.9849ZM10.7856 18.9442C10.7991 18.9578 10.8127 18.9713 10.8263 18.9849L12.2407 17.571C12.2272 17.5574 12.2135 17.5437 12.1998 17.53L10.7856 18.9442ZM8.50412 16.6628L10.7856 18.9442L12.1998 17.53L9.91833 15.2486L8.50412 16.6628ZM8.50412 13.8343C7.72307 14.6154 7.72307 15.8817 8.50412 16.6628L9.91833 15.2486L9.91834 15.2486L8.50412 13.8343ZM11.3325 13.8343C10.5515 13.0533 9.28517 13.0533 8.50412 13.8343L9.91834 15.2486L9.91833 15.2486L11.3325 13.8343ZM13.614 16.1158L11.3325 13.8343L9.91833 15.2486L12.1998 17.53L13.614 16.1158ZM14.2758 16.7469C14.1767 16.672 14.0196 16.5214 13.614 16.1158L12.1998 17.53C12.5601 17.8903 12.8329 18.1633 13.0695 18.3421L14.2758 16.7469ZM14.2778 16.7484C14.2772 16.7479 14.2765 16.7474 14.2758 16.7469L13.0694 18.3421C13.0731 18.3449 13.0767 18.3476 13.0803 18.3503L14.2778 16.7484ZM13.0122 16.8041C13.0114 16.8048 13.0108 16.8054 13.0102 16.8059L14.3478 18.2928C14.3512 18.2897 14.3545 18.2867 14.3578 18.2837L13.0122 16.8041ZM13.614 16.1158C13.2468 16.5565 13.104 16.7206 13.0121 16.8042L14.3579 18.2837C14.5772 18.0841 14.8243 17.7876 15.1505 17.3962L13.614 16.1158ZM18.5954 10.1381L13.614 16.1158L15.1505 17.3962L20.1319 11.4185L18.5954 10.1381ZM21.4122 9.88204C20.5637 9.17491 19.3025 9.28956 18.5954 10.1381L20.1319 11.4185L20.1319 11.4185L21.4122 9.88204Z" fill="#FAFAFA"/>
<defs>
<filter id="filter0_d_554_1958" x="0" y="0" width="31" height="36" filterUnits="userSpaceOnUse" color-interpolation-filters="sRGB">
<feFlood flood-opacity="0" result="BackgroundImageFix"/>
<feColorMatrix in="SourceAlpha" type="matrix" values="0 0 0 0 0 0 0 0 0 0 0 0 0 0 0 0 0 0 127 0" result="hardAlpha"/>
<feOffset dx="1" dy="1"/>
<feGaussianBlur stdDeviation="1"/>
<feComposite in2="hardAlpha" operator="out"/>
<feColorMatrix type="matrix" values="0 0 0 0 0 0 0 0 0 0 0 0 0 0 0 0 0 0 0.25 0"/>
<feBlend mode="normal" in2="BackgroundImageFix" result="effect1_dropShadow_554_1958"/>
<feBlend mode="normal" in="SourceGraphic" in2="effect1_dropShadow_554_1958" result="shape"/>
</filter>
</defs>
</svg>
