<svg width="42" height="42" viewBox="0 0 42 42" fill="none" xmlns="http://www.w3.org/2000/svg">
<circle cx="21" cy="21" r="20.5" fill="#B22222"/>
<g clip-path="url(#clip0_263_1989)">
<path d="M20.5 20.5C21.7361 20.5 22.9445 20.1334 23.9723 19.4467C25.0001 18.7599 25.8012 17.7838 26.2742 16.6418C26.7473 15.4997 26.8711 14.2431 26.6299 13.0307C26.3888 11.8183 25.7935 10.7047 24.9194 9.83059C24.0453 8.95651 22.9317 8.36125 21.7193 8.12009C20.5069 7.87894 19.2503 8.00271 18.1082 8.47576C16.9662 8.9488 15.9901 9.74988 15.3033 10.7777C14.6166 11.8055 14.25 13.0139 14.25 14.25C14.2517 15.9071 14.9107 17.4958 16.0824 18.6676C17.2542 19.8393 18.8429 20.4983 20.5 20.5ZM20.5 10.0833C21.3241 10.0833 22.1297 10.3277 22.8149 10.7855C23.5001 11.2434 24.0341 11.8941 24.3495 12.6555C24.6649 13.4168 24.7474 14.2546 24.5866 15.0629C24.4258 15.8711 24.029 16.6136 23.4463 17.1963C22.8636 17.779 22.1211 18.1758 21.3129 18.3366C20.5046 18.4974 19.6668 18.4149 18.9055 18.0995C18.1441 17.7841 17.4934 17.2501 17.0355 16.5649C16.5777 15.8797 16.3333 15.0741 16.3333 14.25C16.3333 13.1449 16.7723 12.0851 17.5537 11.3037C18.3351 10.5223 19.3949 10.0833 20.5 10.0833Z" fill="#FAFAFA"/>
<path d="M20.5 22.5833C18.0144 22.5861 15.6315 23.5747 13.8739 25.3322C12.1164 27.0898 11.1278 29.4728 11.125 31.9583C11.125 32.2346 11.2347 32.4995 11.4301 32.6949C11.6254 32.8902 11.8904 33 12.1667 33C12.4429 33 12.7079 32.8902 12.9032 32.6949C13.0986 32.4995 13.2083 32.2346 13.2083 31.9583C13.2083 30.0244 13.9766 28.1698 15.344 26.8023C16.7115 25.4349 18.5661 24.6666 20.5 24.6666C22.4339 24.6666 24.2885 25.4349 25.656 26.8023C27.0234 28.1698 27.7917 30.0244 27.7917 31.9583C27.7917 32.2346 27.9014 32.4995 28.0968 32.6949C28.2921 32.8902 28.5571 33 28.8333 33C29.1096 33 29.3746 32.8902 29.5699 32.6949C29.7653 32.4995 29.875 32.2346 29.875 31.9583C29.8722 29.4728 28.8836 27.0898 27.1261 25.3322C25.3685 23.5747 22.9856 22.5861 20.5 22.5833Z" fill="#FAFAFA"/>
</g>
<defs>
<clipPath id="clip0_263_1989">
<rect width="25" height="25" fill="white" transform="translate(8 8)"/>
</clipPath>
</defs>
</svg>
