<svg width="26" height="26" viewBox="0 0 26 26" fill="none" xmlns="http://www.w3.org/2000/svg">
<g clip-path="url(#clip0_55_441)">
<path d="M13 13C14.2361 13 15.4445 12.6334 16.4723 11.9467C17.5001 11.2599 18.3012 10.2838 18.7742 9.14177C19.2473 7.99974 19.3711 6.74307 19.1299 5.53069C18.8888 4.31831 18.2935 3.20466 17.4194 2.33059C16.5453 1.45651 15.4317 0.861252 14.2193 0.620095C13.0069 0.378937 11.7503 0.502708 10.6082 0.975756C9.46619 1.4488 8.49007 2.24988 7.80331 3.27769C7.11656 4.3055 6.75 5.51387 6.75 6.75C6.75165 8.4071 7.41067 9.99585 8.58241 11.1676C9.75415 12.3393 11.3429 12.9983 13 13ZM13 2.58334C13.8241 2.58334 14.6297 2.82771 15.3149 3.28555C16.0001 3.74339 16.5341 4.39413 16.8495 5.15549C17.1649 5.91685 17.2474 6.75462 17.0866 7.56288C16.9258 8.37113 16.529 9.11356 15.9463 9.69628C15.3636 10.279 14.6211 10.6758 13.8129 10.8366C13.0046 10.9974 12.1668 10.9149 11.4055 10.5995C10.6441 10.2841 9.99338 9.75008 9.53554 9.06488C9.0777 8.37967 8.83333 7.57409 8.83333 6.75C8.83333 5.64493 9.27232 4.58513 10.0537 3.80372C10.8351 3.02232 11.8949 2.58334 13 2.58334Z" fill="#616161"/>
<path d="M13 15.0833C10.5144 15.0861 8.13147 16.0747 6.37392 17.8322C4.61636 19.5898 3.62776 21.9728 3.625 24.4583C3.625 24.7346 3.73475 24.9995 3.9301 25.1949C4.12545 25.3902 4.3904 25.5 4.66667 25.5C4.94293 25.5 5.20789 25.3902 5.40324 25.1949C5.59859 24.9995 5.70833 24.7346 5.70833 24.4583C5.70833 22.5244 6.47656 20.6698 7.84401 19.3023C9.21147 17.9349 11.0661 17.1666 13 17.1666C14.9339 17.1666 16.7885 17.9349 18.156 19.3023C19.5234 20.6698 20.2917 22.5244 20.2917 24.4583C20.2917 24.7346 20.4014 24.9995 20.5968 25.1949C20.7921 25.3902 21.0571 25.5 21.3333 25.5C21.6096 25.5 21.8746 25.3902 22.0699 25.1949C22.2653 24.9995 22.375 24.7346 22.375 24.4583C22.3722 21.9728 21.3836 19.5898 19.6261 17.8322C17.8685 16.0747 15.4856 15.0861 13 15.0833Z" fill="#616161"/>
</g>
<defs>
<clipPath id="clip0_55_441">
<rect width="25" height="25" fill="white" transform="translate(0.5 0.5)"/>
</clipPath>
</defs>
</svg>
