<svg width="42" height="42" viewBox="0 0 42 42" fill="none" xmlns="http://www.w3.org/2000/svg">
<circle cx="21" cy="21" r="20.5" fill="#B22222"/>
<g clip-path="url(#clip0_263_1862)">
<path d="M31.8079 24.4125L29.9079 17.5765C29.351 15.5739 28.1406 13.8148 26.4692 12.579C24.7978 11.3432 22.7613 10.7015 20.6834 10.756C18.6054 10.8105 16.6053 11.558 15.001 12.8797C13.3966 14.2014 12.2801 16.0214 11.8289 18.0505L10.3579 24.6655C10.1954 25.3965 10.1992 26.1546 10.3689 26.8839C10.5386 27.6132 10.87 28.295 11.3385 28.8791C11.807 29.4632 12.4007 29.9346 13.0758 30.2585C13.7509 30.5824 14.4901 30.7506 15.2389 30.7505H16.3529C16.5824 31.8808 17.1956 32.897 18.0887 33.6269C18.9817 34.3568 20.0996 34.7556 21.2529 34.7556C22.4063 34.7556 23.5242 34.3568 24.4172 33.6269C25.3102 32.897 25.9234 31.8808 26.1529 30.7505H26.9909C27.7617 30.7506 28.5221 30.5724 29.2127 30.23C29.9032 29.8875 30.5053 29.39 30.9717 28.7764C31.4382 28.1628 31.7565 27.4496 31.9017 26.6926C32.0469 25.9356 32.0152 25.1552 31.8089 24.4125H31.8079ZM21.2529 32.7505C20.6347 32.748 20.0323 32.5545 19.5282 32.1965C19.0241 31.8385 18.643 31.3335 18.4369 30.7505H24.0689C23.8628 31.3335 23.4817 31.8385 22.9776 32.1965C22.4735 32.5545 21.8712 32.748 21.2529 32.7505ZM29.3789 27.5655C29.1003 27.9352 28.7392 28.2348 28.3245 28.4405C27.9098 28.6462 27.4528 28.7524 26.9899 28.7505H15.2389C14.7897 28.7505 14.3462 28.6495 13.9413 28.4551C13.5363 28.2607 13.1801 27.9779 12.8991 27.6274C12.618 27.277 12.4193 26.8679 12.3175 26.4304C12.2157 25.9929 12.2134 25.5381 12.3109 25.0995L13.7809 18.4835C14.1353 16.8898 15.0122 15.4601 16.2724 14.422C17.5325 13.3838 19.1035 12.7967 20.7357 12.754C22.3678 12.7112 23.9674 13.2153 25.2802 14.186C26.593 15.1568 27.5436 16.5385 27.9809 18.1115L29.8809 24.9475C30.0065 25.3929 30.0265 25.8614 29.9393 26.3159C29.8522 26.7703 29.6603 27.1982 29.3789 27.5655Z" fill="#FAFAFA"/>
</g>
<defs>
<clipPath id="clip0_263_1862">
<rect width="24" height="24" fill="white" transform="translate(9.25302 10.7506)"/>
</clipPath>
</defs>
</svg>
