<svg width="24" height="24" viewBox="0 0 24 24" fill="none" xmlns="http://www.w3.org/2000/svg">
<g clip-path="url(#clip0_150_1256)">
<path d="M22.5549 13.6619L20.6549 6.82593C20.098 4.82327 18.8876 3.06422 17.2162 1.8284C15.5448 0.592587 13.5083 -0.049079 11.4304 0.00540109C9.35242 0.0598812 7.35231 0.807381 5.74796 2.12908C4.14362 3.45078 3.0271 5.27084 2.5759 7.29993L1.1049 13.9149C0.942413 14.6459 0.94617 15.404 1.11589 16.1333C1.28561 16.8625 1.61696 17.5444 2.08548 18.1285C2.554 18.7126 3.14772 19.184 3.82281 19.5079C4.4979 19.8318 5.23712 20 5.9859 19.9999H7.0999C7.32941 21.1302 7.94263 22.1464 8.83564 22.8763C9.72865 23.6062 10.8465 24.0049 11.9999 24.0049C13.1533 24.0049 14.2711 23.6062 15.1642 22.8763C16.0572 22.1464 16.6704 21.1302 16.8999 19.9999H17.7379C18.5087 20 19.2691 19.8218 19.9597 19.4794C20.6502 19.1369 21.2522 18.6394 21.7187 18.0258C22.1852 17.4122 22.5035 16.699 22.6487 15.942C22.7939 15.185 22.7622 14.4046 22.5559 13.6619H22.5549ZM11.9999 21.9999C11.3816 21.9974 10.7793 21.8039 10.2752 21.4458C9.77113 21.0878 9.38998 20.5828 9.1839 19.9999H14.8159C14.6098 20.5828 14.2287 21.0878 13.7246 21.4458C13.2205 21.8039 12.6182 21.9974 11.9999 21.9999ZM20.1259 16.8149C19.8472 17.1846 19.4862 17.4842 19.0715 17.6899C18.6568 17.8956 18.1998 18.0018 17.7369 17.9999H5.9859C5.53668 17.9999 5.09322 17.8989 4.68824 17.7045C4.28326 17.5101 3.9271 17.2273 3.64606 16.8768C3.36502 16.5264 3.16626 16.1173 3.06446 15.6798C2.96266 15.2423 2.96042 14.7874 3.0579 14.3489L4.5279 7.73293C4.88225 6.13914 5.7592 4.70954 7.01935 3.67138C8.2795 2.63323 9.85052 2.04611 11.4827 2.00335C13.1148 1.96059 14.7144 2.46465 16.0272 3.4354C17.34 4.40616 18.2906 5.78788 18.7279 7.36093L20.6279 14.1969C20.7534 14.6423 20.7734 15.1108 20.6863 15.5653C20.5992 16.0197 20.4073 16.4476 20.1259 16.8149Z" fill="#616161"/>
</g>
<defs>
<clipPath id="clip0_150_1256">
<rect width="24" height="24" fill="white"/>
</clipPath>
</defs>
</svg>
