<svg width="8" height="8" viewBox="0 0 8 8" fill="none" xmlns="http://www.w3.org/2000/svg">
<g clip-path="url(#clip0_114_843)">
<path d="M4.00003 0.666667C4.4422 0.668118 4.87969 0.757247 5.28718 0.928896C5.69468 1.10055 6.06409 1.35131 6.37403 1.66667H5.33336C5.24495 1.66667 5.16017 1.70179 5.09766 1.7643C5.03515 1.82681 5.00003 1.91159 5.00003 2C5.00003 2.08841 5.03515 2.17319 5.09766 2.2357C5.16017 2.29821 5.24495 2.33333 5.33336 2.33333H6.71436C6.8785 2.33325 7.0359 2.268 7.15196 2.15194C7.26803 2.03587 7.33327 1.87848 7.33336 1.71433V0.333334C7.33336 0.244928 7.29824 0.160144 7.23573 0.0976315C7.17322 0.0351194 7.08843 4.3535e-07 7.00003 4.3535e-07C6.91162 4.3535e-07 6.82684 0.0351194 6.76432 0.0976315C6.70181 0.160144 6.66669 0.244928 6.66669 0.333334V1.026C6.11575 0.529818 5.43756 0.196804 4.70806 0.0642501C3.97856 -0.0683035 3.22657 0.00483775 2.53629 0.275483C1.84601 0.546128 1.2447 1.00359 0.799697 1.59664C0.354696 2.18969 0.0835741 2.89491 0.0166935 3.63333C0.0123879 3.67975 0.0177987 3.72656 0.0325811 3.77077C0.0473635 3.81499 0.0711933 3.85563 0.102552 3.89013C0.133911 3.92462 0.172112 3.95221 0.21472 3.97112C0.257327 3.99004 0.303409 3.99988 0.350027 4C0.431556 4.00104 0.510538 3.97161 0.571513 3.91748C0.632488 3.86335 0.671065 3.78841 0.679694 3.70733C0.753898 2.87758 1.13568 2.10557 1.75005 1.54295C2.36442 0.980325 3.16697 0.667765 4.00003 0.666667Z" fill="#616161"/>
<path d="M7.65035 4C7.56882 3.99896 7.48984 4.02838 7.42887 4.08251C7.36789 4.13665 7.32932 4.21158 7.32069 4.29266C7.26558 4.92707 7.02966 5.53237 6.6409 6.03673C6.25215 6.54109 5.72687 6.92336 5.1274 7.13818C4.52793 7.353 3.87942 7.39135 3.2588 7.2487C2.63819 7.10604 2.07152 6.78835 1.62602 6.33333H2.66669C2.75509 6.33333 2.83988 6.29821 2.90239 6.2357C2.9649 6.17319 3.00002 6.0884 3.00002 6C3.00002 5.91159 2.9649 5.82681 2.90239 5.76429C2.83988 5.70178 2.75509 5.66666 2.66669 5.66666H1.28569C1.20439 5.66662 1.12387 5.6826 1.04875 5.71369C0.973634 5.74478 0.905378 5.79038 0.84789 5.84787C0.790402 5.90535 0.744809 5.97361 0.713716 6.04873C0.682624 6.12385 0.666643 6.20436 0.666687 6.28566V7.66666C0.666687 7.75507 0.701806 7.83985 0.764318 7.90237C0.82683 7.96488 0.911615 8 1.00002 8C1.08843 8 1.17321 7.96488 1.23572 7.90237C1.29823 7.83985 1.33335 7.75507 1.33335 7.66666V6.974C1.8843 7.47018 2.56249 7.80319 3.29199 7.93575C4.02148 8.0683 4.77348 7.99516 5.46376 7.72451C6.15404 7.45387 6.75535 6.99641 7.20035 6.40335C7.64535 5.8103 7.91647 5.10508 7.98335 4.36666C7.98766 4.32024 7.98225 4.27344 7.96747 4.22922C7.95268 4.18501 7.92885 4.14436 7.89749 4.10987C7.86614 4.07537 7.82794 4.04779 7.78533 4.02887C7.74272 4.00996 7.69697 4.00012 7.65035 4Z" fill="#616161"/>
</g>
<defs>
<clipPath id="clip0_114_843">
<rect width="8" height="8" fill="white"/>
</clipPath>
</defs>
</svg>
