<svg width="44" height="44" viewBox="0 0 44 44" fill="none" xmlns="http://www.w3.org/2000/svg">
<path d="M4.39996 22.0001C4.39996 12.2799 12.2798 4.40015 22 4.40015V4.40015C31.7202 4.40015 39.6 12.2799 39.6 22.0001V22.0001C39.6 31.7204 31.7202 39.6001 22 39.6001V39.6001C12.2798 39.6001 4.39996 31.7204 4.39996 22.0001V22.0001Z" fill="#B22222"/>
<path d="M31.1667 20.1667H23.8333V12.8333C23.8333 12.3471 23.6402 11.8808 23.2964 11.537C22.9525 11.1932 22.4862 11 22 11C21.5138 11 21.0475 11.1932 20.7036 11.537C20.3598 11.8808 20.1667 12.3471 20.1667 12.8333V20.1667H12.8333C12.3471 20.1667 11.8808 20.3598 11.537 20.7036C11.1932 21.0475 11 21.5138 11 22C11 22.4862 11.1932 22.9525 11.537 23.2964C11.8808 23.6402 12.3471 23.8333 12.8333 23.8333H20.1667V31.1667C20.1667 31.6529 20.3598 32.1192 20.7036 32.463C21.0475 32.8068 21.5138 33 22 33C22.4862 33 22.9525 32.8068 23.2964 32.463C23.6402 32.1192 23.8333 31.6529 23.8333 31.1667V23.8333H31.1667C31.6529 23.8333 32.1192 23.6402 32.463 23.2964C32.8068 22.9525 33 22.4862 33 22C33 21.5138 32.8068 21.0475 32.463 20.7036C32.1192 20.3598 31.6529 20.1667 31.1667 20.1667Z" fill="#FAFAFA"/>
</svg>
