<svg width="28" height="28" viewBox="0 0 28 28" fill="none" xmlns="http://www.w3.org/2000/svg">
<path d="M15.6334 14.8283C15.7428 14.7199 15.8296 14.5908 15.8888 14.4487C15.948 14.3065 15.9785 14.154 15.9785 14C15.9785 13.846 15.948 13.6935 15.8888 13.5513C15.8296 13.4091 15.7428 13.2801 15.6334 13.1717L10.2784 7.82832C10.1691 7.71987 10.0823 7.59083 10.0231 7.44866C9.96384 7.30649 9.93335 7.154 9.93335 6.99999C9.93335 6.84598 9.96384 6.69349 10.0231 6.55132C10.0823 6.40915 10.1691 6.28011 10.2784 6.17166C10.497 5.95436 10.7927 5.8324 11.1009 5.8324C11.4092 5.8324 11.7049 5.95436 11.9234 6.17166L17.2784 11.5267C17.9339 12.1829 18.302 13.0725 18.302 14C18.302 14.9275 17.9339 15.8171 17.2784 16.4733L11.9234 21.8283C11.7061 22.0439 11.4128 22.1654 11.1068 22.1667C10.9532 22.1675 10.801 22.1381 10.6589 22.0801C10.5167 22.022 10.3875 21.9365 10.2784 21.8283C10.1691 21.7199 10.0823 21.5908 10.0231 21.4487C9.96384 21.3065 9.93335 21.154 9.93335 21C9.93335 20.846 9.96384 20.6935 10.0231 20.5513C10.0823 20.4091 10.1691 20.2801 10.2784 20.1717L15.6334 14.8283Z" fill="#424242"/>
</svg>
