<svg width="16" height="17" viewBox="0 0 16 17" fill="none" xmlns="http://www.w3.org/2000/svg">
<g clip-path="url(#clip0_112_678)">
<path d="M3.31456 9.41755C3.68069 9.41755 3.97749 9.12074 3.97749 8.75461C3.97749 8.38848 3.68069 8.09167 3.31456 8.09167C2.94843 8.09167 2.65163 8.38848 2.65163 8.75461C2.65163 9.12074 2.94843 9.41755 3.31456 9.41755Z" fill="#FAFAFA"/>
<path d="M0.662927 6.76593C1.02906 6.76593 1.32586 6.46913 1.32586 6.103C1.32586 5.73687 1.02906 5.44006 0.662927 5.44006C0.296798 5.44006 -7.62939e-06 5.73687 -7.62939e-06 6.103C-7.62939e-06 6.46913 0.296798 6.76593 0.662927 6.76593Z" fill="#FAFAFA"/>
<path d="M3.31456 4.11395C3.68069 4.11395 3.97749 3.81715 3.97749 3.45102C3.97749 3.08489 3.68069 2.78809 3.31456 2.78809C2.94843 2.78809 2.65163 3.08489 2.65163 3.45102C2.65163 3.81715 2.94843 4.11395 3.31456 4.11395Z" fill="#FAFAFA"/>
<path d="M0.662935 1.46234C1.02906 1.46234 1.32587 1.16554 1.32587 0.799409C1.32587 0.433281 1.02906 0.136475 0.662935 0.136475C0.296806 0.136475 0 0.433281 0 0.799409C0 1.16554 0.296806 1.46234 0.662935 1.46234Z" fill="#FAFAFA"/>
<path d="M15.2474 9.41755C15.6135 9.41755 15.9103 9.12074 15.9103 8.75461C15.9103 8.38848 15.6135 8.09167 15.2474 8.09167C14.8813 8.09167 14.5845 8.38848 14.5845 8.75461C14.5845 9.12074 14.8813 9.41755 15.2474 9.41755Z" fill="#FAFAFA"/>
<path d="M12.5958 6.76593C12.9619 6.76593 13.2587 6.46913 13.2587 6.103C13.2587 5.73687 12.9619 5.44006 12.5958 5.44006C12.2296 5.44006 11.9328 5.73687 11.9328 6.103C11.9328 6.46913 12.2296 6.76593 12.5958 6.76593Z" fill="#FAFAFA"/>
<path d="M15.2474 4.11395C15.6135 4.11395 15.9103 3.81715 15.9103 3.45102C15.9103 3.08489 15.6135 2.78809 15.2474 2.78809C14.8813 2.78809 14.5845 3.08489 14.5845 3.45102C14.5845 3.81715 14.8813 4.11395 15.2474 4.11395Z" fill="#FAFAFA"/>
<path d="M12.5958 1.46234C12.9619 1.46234 13.2587 1.16554 13.2587 0.799409C13.2587 0.433281 12.9619 0.136475 12.5958 0.136475C12.2296 0.136475 11.9328 0.433281 11.9328 0.799409C11.9328 1.16554 12.2296 1.46234 12.5958 1.46234Z" fill="#FAFAFA"/>
<path d="M9.281 16.0468C9.64713 16.0468 9.94393 15.75 9.94393 15.3839C9.94393 15.0178 9.64713 14.7209 9.281 14.7209C8.91486 14.7209 8.61806 15.0178 8.61806 15.3839C8.61806 15.75 8.91486 16.0468 9.281 16.0468Z" fill="#FAFAFA"/>
<path d="M6.62935 13.3952C6.99548 13.3952 7.29228 13.0983 7.29228 12.7322C7.29228 12.3661 6.99548 12.0693 6.62935 12.0693C6.26322 12.0693 5.96642 12.3661 5.96642 12.7322C5.96642 13.0983 6.26322 13.3952 6.62935 13.3952Z" fill="#FAFAFA"/>
<path d="M9.281 10.7435C9.64713 10.7435 9.94393 10.4467 9.94393 10.0806C9.94393 9.71447 9.64713 9.41766 9.281 9.41766C8.91486 9.41766 8.61806 9.71447 8.61806 10.0806C8.61806 10.4467 8.91486 10.7435 9.281 10.7435Z" fill="#FAFAFA"/>
<path d="M6.62935 8.09162C6.99548 8.09162 7.29228 7.79482 7.29228 7.42869C7.29228 7.06255 6.99548 6.76575 6.62935 6.76575C6.26322 6.76575 5.96642 7.06255 5.96642 7.42869C5.96642 7.79482 6.26322 8.09162 6.62935 8.09162Z" fill="#FAFAFA"/>
<path d="M9.94411 2.12528C9.59247 2.12528 9.25523 1.98559 9.00658 1.73694C8.75793 1.48829 8.61824 1.15105 8.61824 0.79941C8.61824 0.623588 8.5484 0.454968 8.42407 0.330644C8.29975 0.206319 8.13113 0.136475 7.95531 0.136475C7.77949 0.136475 7.61087 0.206319 7.48654 0.330644C7.36222 0.454968 7.29237 0.623588 7.29237 0.79941C7.29237 1.15105 7.15268 1.48829 6.90404 1.73694C6.65539 1.98559 6.31815 2.12528 5.96651 2.12528C5.79069 2.12528 5.62207 2.19512 5.49774 2.31945C5.37342 2.44377 5.30357 2.61239 5.30357 2.78821C5.30357 2.96404 5.37342 3.13266 5.49774 3.25698C5.62207 3.3813 5.79069 3.45115 5.96651 3.45115C6.31815 3.45115 6.65539 3.59084 6.90404 3.83949C7.15268 4.08814 7.29237 4.42538 7.29237 4.77702C7.29237 4.95284 7.36222 5.12146 7.48654 5.24578C7.61087 5.37011 7.77949 5.43995 7.95531 5.43995C8.13113 5.43995 8.29975 5.37011 8.42407 5.24578C8.5484 5.12146 8.61824 4.95284 8.61824 4.77702C8.61824 4.42538 8.75793 4.08814 9.00658 3.83949C9.25523 3.59084 9.59247 3.45115 9.94411 3.45115C10.1199 3.45115 10.2885 3.3813 10.4129 3.25698C10.5372 3.13266 10.607 2.96404 10.607 2.78821C10.607 2.61239 10.5372 2.44377 10.4129 2.31945C10.2885 2.19512 10.1199 2.12528 9.94411 2.12528Z" fill="#FAFAFA"/>
<path d="M4.64054 12.7321C4.28889 12.7321 3.95165 12.5925 3.70301 12.3438C3.45436 12.0952 3.31467 11.7579 3.31467 11.4063C3.31467 11.2305 3.24482 11.0618 3.1205 10.9375C2.99617 10.8132 2.82755 10.7433 2.65173 10.7433C2.47591 10.7433 2.30729 10.8132 2.18297 10.9375C2.05864 11.0618 1.9888 11.2305 1.9888 11.4063C1.9888 11.7579 1.84911 12.0952 1.60046 12.3438C1.35181 12.5925 1.01457 12.7321 0.662927 12.7321C0.487106 12.7321 0.318486 12.802 0.194162 12.9263C0.0698371 13.0506 -7.62939e-06 13.2193 -7.62939e-06 13.3951C-7.62939e-06 13.5709 0.0698371 13.7395 0.194162 13.8638C0.318486 13.9882 0.487106 14.058 0.662927 14.058C1.01457 14.058 1.35181 14.1977 1.60046 14.4464C1.84911 14.695 1.9888 15.0322 1.9888 15.3839C1.9888 15.5597 2.05864 15.7283 2.18297 15.8526C2.30729 15.977 2.47591 16.0468 2.65173 16.0468C2.82755 16.0468 2.99617 15.977 3.1205 15.8526C3.24482 15.7283 3.31467 15.5597 3.31467 15.3839C3.31467 15.0322 3.45436 14.695 3.70301 14.4464C3.95165 14.1977 4.28889 14.058 4.64054 14.058C4.81636 14.058 4.98498 13.9882 5.1093 13.8638C5.23363 13.7395 5.30347 13.5709 5.30347 13.3951C5.30347 13.2193 5.23363 13.0506 5.1093 12.9263C4.98498 12.802 4.81636 12.7321 4.64054 12.7321Z" fill="#FAFAFA"/>
<path d="M15.2474 12.7321C14.8958 12.7321 14.5585 12.5925 14.3099 12.3438C14.0612 12.0952 13.9215 11.7579 13.9215 11.4063C13.9215 11.2305 13.8517 11.0618 13.7274 10.9375C13.603 10.8132 13.4344 10.7433 13.2586 10.7433C13.0828 10.7433 12.9142 10.8132 12.7898 10.9375C12.6655 11.0618 12.5957 11.2305 12.5957 11.4063C12.5957 11.7579 12.456 12.0952 12.2073 12.3438C11.9587 12.5925 11.6214 12.7321 11.2698 12.7321C11.094 12.7321 10.9253 12.802 10.801 12.9263C10.6767 13.0506 10.6069 13.2193 10.6069 13.3951C10.6069 13.5709 10.6767 13.7395 10.801 13.8638C10.9253 13.9882 11.094 14.058 11.2698 14.058C11.6214 14.058 11.9587 14.1977 12.2073 14.4464C12.456 14.695 12.5957 15.0322 12.5957 15.3839C12.5957 15.5597 12.6655 15.7283 12.7898 15.8526C12.9142 15.977 13.0828 16.0468 13.2586 16.0468C13.4344 16.0468 13.603 15.977 13.7274 15.8526C13.8517 15.7283 13.9215 15.5597 13.9215 15.3839C13.9215 15.0322 14.0612 14.695 14.3099 14.4464C14.5585 14.1977 14.8958 14.058 15.2474 14.058C15.4232 14.058 15.5918 13.9882 15.7162 13.8638C15.8405 13.7395 15.9103 13.5709 15.9103 13.3951C15.9103 13.2193 15.8405 13.0506 15.7162 12.9263C15.5918 12.802 15.4232 12.7321 15.2474 12.7321Z" fill="#FAFAFA"/>
</g>
<defs>
<clipPath id="clip0_112_678">
<rect width="15.9104" height="15.9104" fill="white" transform="translate(0 0.136475)"/>
</clipPath>
</defs>
</svg>
