<svg width="10" height="10" viewBox="0 0 10 10" fill="none" xmlns="http://www.w3.org/2000/svg">
<g clip-path="url(#clip0_804_2116)">
<path d="M8.74998 1.66667H7.45831C7.36161 1.19642 7.10574 0.773894 6.73383 0.470299C6.36193 0.166704 5.89673 0.000606052 5.41665 0L4.58331 0C4.10323 0.000606052 3.63803 0.166704 3.26613 0.470299C2.89422 0.773894 2.63835 1.19642 2.54165 1.66667H1.24998C1.13947 1.66667 1.03349 1.71057 0.955352 1.78871C0.877212 1.86685 0.833313 1.97283 0.833313 2.08333C0.833313 2.19384 0.877212 2.29982 0.955352 2.37796C1.03349 2.4561 1.13947 2.5 1.24998 2.5H1.66665V7.91667C1.66731 8.469 1.88701 8.99852 2.27757 9.38908C2.66813 9.77963 3.19765 9.99934 3.74998 10H6.24998C6.80231 9.99934 7.33183 9.77963 7.72239 9.38908C8.11295 8.99852 8.33265 8.469 8.33331 7.91667V2.5H8.74998C8.86049 2.5 8.96647 2.4561 9.04461 2.37796C9.12275 2.29982 9.16665 2.19384 9.16665 2.08333C9.16665 1.97283 9.12275 1.86685 9.04461 1.78871C8.96647 1.71057 8.86049 1.66667 8.74998 1.66667ZM4.58331 0.833333H5.41665C5.67509 0.833649 5.92712 0.913907 6.13815 1.0631C6.34919 1.2123 6.5089 1.42312 6.5954 1.66667H3.40456C3.49106 1.42312 3.65077 1.2123 3.86181 1.0631C4.07284 0.913907 4.32487 0.833649 4.58331 0.833333ZM7.49998 7.91667C7.49998 8.24819 7.36828 8.56613 7.13386 8.80055C6.89944 9.03497 6.5815 9.16667 6.24998 9.16667H3.74998C3.41846 9.16667 3.10052 9.03497 2.8661 8.80055C2.63168 8.56613 2.49998 8.24819 2.49998 7.91667V2.5H7.49998V7.91667Z" fill="#E84A4A"/>
<path d="M4.16667 7.5C4.27717 7.5 4.38315 7.4561 4.46129 7.37796C4.53943 7.29982 4.58333 7.19384 4.58333 7.08333V4.58333C4.58333 4.47283 4.53943 4.36685 4.46129 4.28871C4.38315 4.21057 4.27717 4.16667 4.16667 4.16667C4.05616 4.16667 3.95018 4.21057 3.87204 4.28871C3.7939 4.36685 3.75 4.47283 3.75 4.58333V7.08333C3.75 7.19384 3.7939 7.29982 3.87204 7.37796C3.95018 7.4561 4.05616 7.5 4.16667 7.5Z" fill="#E84A4A"/>
<path d="M5.83335 7.5C5.94386 7.5 6.04984 7.4561 6.12798 7.37796C6.20612 7.29982 6.25002 7.19384 6.25002 7.08333V4.58333C6.25002 4.47283 6.20612 4.36685 6.12798 4.28871C6.04984 4.21057 5.94386 4.16667 5.83335 4.16667C5.72285 4.16667 5.61687 4.21057 5.53873 4.28871C5.46059 4.36685 5.41669 4.47283 5.41669 4.58333V7.08333C5.41669 7.19384 5.46059 7.29982 5.53873 7.37796C5.61687 7.4561 5.72285 7.5 5.83335 7.5Z" fill="#E84A4A"/>
</g>
<defs>
<clipPath id="clip0_804_2116">
<rect width="10" height="10" fill="white"/>
</clipPath>
</defs>
</svg>
